<svg xmlns="http://www.w3.org/2000/svg" version="1.1" xmlns:xlink="http://www.w3.org/1999/xlink" width="512" height="512" x="0" y="0" viewBox="0 0 64 64" style="enable-background:new 0 0 512 512" xml:space="preserve" fill-rule="evenodd"><g><path fill="#EDF4FE" d="M42.829 54.23a.999.999 0 0 0 .975-1.221 7.696 7.696 0 0 1 9.205-9.205.999.999 0 0 0 1.221-.975V11.773A8.773 8.773 0 0 0 45.457 3H11.773A8.773 8.773 0 0 0 3 11.773v33.684a8.773 8.773 0 0 0 8.773 8.773z" opacity="1" data-original="#edf4fe"></path><path fill="#00912C" d="M42.829 54.23a.999.999 0 0 0 .975-1.221 7.696 7.696 0 0 1 8.087-9.372 1 1 0 0 0 .884-1.585l-6.244-8.6a8.773 8.773 0 0 0-14.199 0L22.823 46.55a1.001 1.001 0 0 0 0 1.175l4.423 6.093a1 1 0 0 0 .809.412z" opacity="1" data-original="#00912c"></path><path fill="#008127" d="m24.868 43.734-2.045 2.816a1.001 1.001 0 0 0 0 1.175l4.423 6.093a1 1 0 0 0 .809.412h2.829a3.001 3.001 0 0 0-.401-2.763z" opacity="1" data-original="#008127"></path><path fill="#00BF4B" d="M3.191 43.794a1 1 0 0 0-.191.587v1.076a8.773 8.773 0 0 0 8.773 8.773h16.282a1 1 0 0 0 .81-1.588l-8.95-12.327a8.774 8.774 0 0 0-14.199 0l-2.525 3.479zM48.548 28.615v-2a.5.5 0 0 0-1 0v2a.5.5 0 0 0 1 0zm0-4v-2a.5.5 0 0 0-1 0v2a.5.5 0 0 0 1 0zm0-4v-2a.5.5 0 0 0-1 0v2a.5.5 0 0 0 1 0zm0-4v-1.881l-.001-.13a.501.501 0 0 0-1 .022l.001.108v1.881a.5.5 0 0 0 1 0zm-.434-4.136a6.075 6.075 0 0 0-1.156-1.834.5.5 0 0 0-.738.676c.408.445.737.962.966 1.531a.5.5 0 1 0 .928-.373zm-2.883-3.145a6.018 6.018 0 0 0-2.08-.617.5.5 0 0 0-.107.994 5.021 5.021 0 0 1 1.734.515.501.501 0 0 0 .453-.892zm-8.132-.652h-2a.5.5 0 0 0 0 1h2a.5.5 0 0 0 0-1zm4 0h-2a.5.5 0 0 0 0 1h2a.5.5 0 0 0 0-1zm-8 0h-2a.5.5 0 0 0 0 1h2a.5.5 0 0 0 0-1zm-4.772.321c-.128-.139-.212.01-.212.179a.5.5 0 0 0 .5.5h.484a.5.5 0 0 0 0-1h-.479c-.251 0-.313.143-.293.321z" opacity="1" data-original="#00bf4b"></path><circle cx="17.834" cy="17.834" r="5.627" fill="#F8BC38" opacity="1" data-original="#f8bc38"></circle><circle cx="51.308" cy="51.307" r="9.693" fill="#55A1FF" opacity="1" data-original="#55a1ff"></circle><g fill="#EEF6FF"><path d="M50.308 47.807v7a1 1 0 1 0 2 0v-7a1.001 1.001 0 0 0-2 0z" fill="#EEF6FF" opacity="1" data-original="#eef6ff"></path><path d="M47.808 52.307h6.999a1.001 1.001 0 0 0 .001-2h-7.001a1.001 1.001 0 0 0 .001 2z" fill="#EEF6FF" opacity="1" data-original="#eef6ff"></path></g></g></svg>