<svg xmlns="http://www.w3.org/2000/svg" version="1.1" xmlns:xlink="http://www.w3.org/1999/xlink" width="512" height="512" x="0" y="0" viewBox="0 0 497 497" style="enable-background:new 0 0 512 512" xml:space="preserve"><g><path fill="#F6CC90" d="M43.5 497c0-.332 61.046-52.15 205-52.15 139.829 0 205 51.818 205 52.15z" opacity="1" data-original="#f6cc90"></path><path fill="#F0C17F" d="M248.5 444.85c-8.93 0-17.54.2-25.838.575C345.163 451.082 402.5 496.688 402.5 497h51c0-.332-65.171-52.15-205-52.15z" opacity="1" data-original="#f0c17f"></path><path fill="#C5E866" d="M341.592 84.041c-16.68 48.382-61.626 56.708-61.626 56.708s-29.783-35.659-13.537-82.784C283.542 8.325 328.489 0 328.489 0s30 35.03 13.103 84.041z" opacity="1" data-original="#c5e866"></path><path fill="#B2D94B" d="M328.489 0s-11.879 2.202-25.748 11.084c7.621 14.056 17.067 40.424 5.852 72.956-8.069 23.405-22.752 37.435-35.762 45.684 3.817 7.046 7.136 11.023 7.136 11.023s44.947-8.325 61.626-56.708C358.489 35.03 328.489 0 328.489 0z" opacity="1" data-original="#b2d94b"></path><path fill="#6C8A13" d="M246.551 255.295a7.5 7.5 0 0 1-7.159-9.743c1.837-5.87 45.248-144.355 66.397-196.217a7.499 7.499 0 0 1 9.776-4.113 7.498 7.498 0 0 1 4.112 9.777c-20.911 51.279-65.523 193.603-65.972 195.035a7.5 7.5 0 0 1-7.154 5.261z" opacity="1" data-original="#6c8a13"></path><path fill="#6C8A13" d="M246.549 477.174a7.5 7.5 0 0 1-7.5-7.5V244.236c0-4.142 3.357-7.5 7.5-7.5s7.5 3.358 7.5 7.5v225.438a7.5 7.5 0 0 1-7.5 7.5z" opacity="1" data-original="#6c8a13"></path><path fill="#9CC042" d="M296.779 311.495c-27.401 3.894-47.573-1.703-47.573-1.703s-17.446-70.005 37.073-124.697c57.427-57.609 125.758-38.649 125.758-38.649s14.989 57.14-24.731 110.239" opacity="1" data-original="#9cc042"></path><path fill="#85AA18" d="M412.036 146.447s-18.322-5.081-43.963-1.985c6.925.868 10.963 1.985 10.963 1.985s14.989 57.14-24.731 110.239l-90.527 54.81c-1.002.142-1.992.268-2.974.386 8.542 1.053 21.204 1.713 35.974-.386l90.527-54.81c39.721-53.1 24.731-110.239 24.731-110.239z" opacity="1" data-original="#85aa18"></path><path fill="#C5E866" d="M183.857 274.782c48.636 38.332 40.337 93.276 40.337 93.276s-52.514 20.097-99.886-17.24c-49.899-39.328-41.6-94.271-41.6-94.271s51.882-20.595 101.149 18.235z" opacity="1" data-original="#c5e866"></path><path fill="#9CC042" d="M128.085 195.723c48.968 62.391 119.053 51.662 119.053 51.662s25.569-67.447-22.127-128.218c-50.24-64.011-120.325-53.283-120.325-53.283s-26.205 66.638 23.399 129.839z" opacity="1" data-original="#9cc042"></path><path fill="#6C8A13" d="M246.549 459.218a7.5 7.5 0 0 1-7.5-7.5c0-43.573-16.103-80.775-47.861-110.572-23.781-22.313-47.582-31.734-47.819-31.826a7.499 7.499 0 0 1-4.267-9.71 7.499 7.499 0 0 1 9.71-4.267c1.081.421 26.765 10.587 52.64 34.865 23.995 22.513 52.598 61.87 52.598 121.511a7.501 7.501 0 0 1-7.501 7.499z" opacity="1" data-original="#6c8a13"></path><path fill="#C5E866" d="M374.641 339.78c-42.019 29.052-83.14 9.034-83.14 9.034s-2.921-46.429 38.007-74.726c43.111-29.806 84.231-9.788 84.231-9.788s3.467 46.052-39.098 75.48z" opacity="1" data-original="#c5e866"></path><path fill="#B2D94B" d="M413.739 264.3s-21.434-10.43-49.576-5.016c10.266 1.945 16.576 5.016 16.576 5.016s3.466 46.051-39.099 75.48c-11.393 7.877-22.717 12.141-33.176 14.181 15.867 3.012 40.856 3.325 66.176-14.181 42.566-29.428 39.099-75.48 39.099-75.48z" opacity="1" data-original="#b2d94b"></path><g fill="#6C8A13"><path d="M246.543 459.218a7.5 7.5 0 0 1-7.486-7.148c-.051-1.096-1.107-27.216 12.047-59.509 12.101-29.708 39.043-70.482 98.676-96.03a7.5 7.5 0 1 1 5.907 13.788c-44.118 18.901-74.631 48.476-90.69 87.901-11.921 29.265-10.966 52.912-10.954 53.147a7.5 7.5 0 0 1-7.5 7.851zM244.006 251.788a7.5 7.5 0 0 1-6.691-4.102c-28.682-56.395-77.152-105.568-77.639-106.059a7.5 7.5 0 0 1 10.648-10.564c2.053 2.069 50.623 51.353 80.361 109.823a7.502 7.502 0 0 1-6.679 10.902zM248.906 316.946a7.501 7.501 0 0 1-6.209-11.699c2.066-3.06 51.288-75.331 111.177-110.176a7.499 7.499 0 1 1 7.543 12.964C304.466 241.172 255.615 312.92 255.129 313.64a7.491 7.491 0 0 1-6.223 3.306z" fill="#6C8A13" opacity="1" data-original="#6c8a13"></path></g></g></svg>